# Blender v2.79 (sub 0) OBJ File: ''
# www.blender.org
mtllib particle.mtl
o Cube.001
v 0.092972 -0.092972 0.139366
v -0.092972 -0.092972 -0.139550
v 0.092972 -0.092972 -0.139549
v -0.092972 0.092972 -0.139549
v 0.092972 0.092972 0.139366
v 0.092972 0.092972 -0.139549
v -0.092972 -0.092972 0.139366
v -0.092972 0.092972 0.139366
vt 0.000000 0.000000
vt 1.000000 0.000000
vt 1.000000 1.000000
vt 0.000000 0.000000
vt 1.000000 0.000000
vt 1.000000 1.000000
vt 0.000000 0.000000
vt 1.000000 0.000000
vt 0.000000 0.000000
vt 1.000000 0.000000
vt 1.000000 1.000000
vt 0.000000 0.000000
vt 0.000000 1.000000
vt 1.000000 1.000000
vt 0.000000 0.000000
vt 1.000000 0.000000
vt 0.000000 1.000000
vt 1.000000 1.000000
vt 0.000000 1.000000
vt 1.000000 1.000000
vt 0.000000 1.000000
vt 1.000000 1.000000
vn 0.0000 -1.0000 -0.0000
vn -0.0000 1.0000 0.0000
vn 1.0000 0.0000 0.0000
vn -0.0000 0.0000 1.0000
vn -1.0000 0.0000 0.0000
vn 0.0000 0.0000 -1.0000
usemtl Material.001
s 1
f 1/1/1 2/2/1 3/3/1
f 4/4/2 5/5/2 6/6/2
f 6/7/3 1/8/3 3/3/3
f 5/9/4 7/10/4 1/11/4
f 8/12/5 2/13/5 7/14/5
f 3/15/6 4/16/6 6/6/6
f 1/1/1 7/17/1 2/18/1
f 4/4/2 8/19/2 5/20/2
f 6/7/3 5/21/3 1/11/3
f 5/9/4 8/19/4 7/14/4
f 8/12/5 4/16/5 2/18/5
f 3/15/6 2/13/6 4/22/6
