# Blender v2.79 (sub 0) OBJ File: ''
# www.blender.org
mtllib particle2.mtl
o Sphere
v 0.000000 -0.115629 -0.000000
v 0.000000 -0.106828 -0.044249
v 0.031289 -0.106828 -0.031289
v 0.000000 -0.044250 -0.106828
v 0.057815 -0.081762 -0.057815
v 0.000000 -0.081762 -0.081762
v 0.000000 0.044249 -0.106828
v 0.081762 0.000000 -0.081762
v 0.000000 0.000000 -0.115629
v 0.000000 0.081762 -0.081762
v 0.031289 0.106828 -0.031289
v 0.057815 0.081762 -0.057815
v 0.075538 -0.044250 -0.075539
v 0.075538 0.044249 -0.075539
v 0.000000 0.106828 -0.044249
v 0.000000 0.115629 0.000000
v 0.081762 -0.081762 -0.000000
v 0.044249 -0.106828 -0.000000
v 0.106828 -0.044250 -0.000000
v 0.106828 0.044249 0.000000
v 0.044249 0.106828 0.000000
v 0.115629 0.000000 0.000000
v 0.081762 0.081762 0.000000
v 0.075538 -0.044250 0.075538
v 0.075538 0.044249 0.075538
v 0.031289 0.106828 0.031289
v 0.031289 -0.106828 0.031289
v 0.057815 -0.081762 0.057815
v 0.081762 -0.000000 0.081762
v 0.057815 0.081762 0.057815
v 0.000000 -0.106828 0.044249
v 0.000000 -0.044250 0.106828
v 0.000000 -0.081762 0.081762
v 0.000000 -0.000000 0.115629
v 0.000000 0.081762 0.081762
v 0.000000 0.044249 0.106828
v 0.000000 0.106828 0.044249
v -0.075538 0.044249 0.075538
v -0.081762 -0.000000 0.081762
v -0.031289 0.106828 0.031289
v -0.057815 0.081762 0.057815
v -0.031289 -0.106828 0.031289
v -0.075538 -0.044250 0.075538
v -0.057815 -0.081762 0.057815
v -0.044249 -0.106828 -0.000000
v -0.106828 -0.044250 -0.000000
v -0.106828 0.044249 0.000000
v -0.044249 0.106828 0.000000
v -0.081762 -0.081762 -0.000000
v -0.115629 0.000000 0.000000
v -0.081762 0.081762 0.000000
v -0.075538 0.044249 -0.075538
v -0.031289 0.106828 -0.031289
v -0.031289 -0.106828 -0.031289
v -0.075538 -0.044250 -0.075538
v -0.057815 -0.081762 -0.057815
v -0.081762 0.000000 -0.081762
v -0.057815 0.081762 -0.057815
vt 0.000000 0.000000
vt 1.000000 0.000000
vt 1.000000 1.000000
vt 1.000000 0.000000
vt 0.000000 1.000000
vt 0.000000 0.000000
vt 1.000000 0.000000
vt 0.000000 1.000000
vt 0.000000 0.000000
vt 0.000000 0.000000
vt 1.000000 1.000000
vt 0.000000 1.000000
vt 1.000000 0.000000
vt 0.000000 1.000000
vt 0.000000 0.000000
vt 1.000000 0.000000
vt 0.000000 1.000000
vt 0.000000 0.000000
vt 0.000000 0.000000
vt 1.000000 1.000000
vt 0.000000 1.000000
vt 0.000000 0.000000
vt 1.000000 0.000000
vt 0.000000 0.000000
vt 1.000000 1.000000
vt 0.000000 1.000000
vt 1.000000 0.000000
vt 0.000000 1.000000
vt 0.000000 0.000000
vt 1.000000 0.000000
vt 0.000000 1.000000
vt 0.000000 0.000000
vt 0.000000 0.000000
vt 1.000000 1.000000
vt 1.000000 0.000000
vt 1.000000 1.000000
vt 1.000000 0.000000
vt 0.000000 1.000000
vt 0.000000 0.000000
vt 1.000000 0.000000
vt 0.000000 1.000000
vt 0.000000 0.000000
vt 1.000000 0.000000
vt 0.000000 1.000000
vt 0.000000 0.000000
vt 1.000000 0.000000
vt 0.000000 1.000000
vt 0.000000 0.000000
vt 1.000000 0.000000
vt 0.000000 1.000000
vt 0.000000 0.000000
vt 0.000000 0.000000
vt 1.000000 1.000000
vt 1.000000 0.000000
vt 1.000000 1.000000
vt 1.000000 0.000000
vt 0.000000 1.000000
vt 0.000000 0.000000
vt 1.000000 0.000000
vt 0.000000 1.000000
vt 0.000000 0.000000
vt 1.000000 0.000000
vt 0.000000 1.000000
vt 0.000000 0.000000
vt 1.000000 0.000000
vt 0.000000 1.000000
vt 0.000000 0.000000
vt 1.000000 0.000000
vt 1.000000 1.000000
vt 0.000000 0.000000
vt 1.000000 1.000000
vt 0.000000 1.000000
vt 1.000000 0.000000
vt 0.000000 1.000000
vt 0.000000 0.000000
vt 1.000000 0.000000
vt 0.000000 1.000000
vt 0.000000 0.000000
vt 1.000000 0.000000
vt 0.000000 1.000000
vt 0.000000 0.000000
vt 1.000000 0.000000
vt 0.000000 1.000000
vt 0.000000 0.000000
vt 1.000000 0.000000
vt 0.000000 1.000000
vt 0.000000 0.000000
vt 0.000000 0.000000
vt 1.000000 1.000000
vt 0.000000 0.000000
vt 1.000000 1.000000
vt 0.000000 1.000000
vt 0.000000 0.000000
vt 1.000000 1.000000
vt 0.000000 1.000000
vt 1.000000 0.000000
vt 0.000000 1.000000
vt 0.000000 0.000000
vt 1.000000 0.000000
vt 0.000000 1.000000
vt 0.000000 0.000000
vt 1.000000 0.000000
vt 0.000000 1.000000
vt 0.000000 0.000000
vt 0.000000 0.000000
vt 1.000000 0.000000
vt 1.000000 1.000000
vt 0.000000 0.000000
vt 1.000000 1.000000
vt 0.000000 1.000000
vt 1.000000 0.000000
vt 0.000000 1.000000
vt 0.000000 0.000000
vt 1.000000 0.000000
vt 0.000000 1.000000
vt 0.000000 0.000000
vt 1.000000 0.000000
vt 0.000000 1.000000
vt 0.000000 0.000000
vt 0.000000 0.000000
vt 1.000000 1.000000
vt 1.000000 0.000000
vt 1.000000 1.000000
vt 1.000000 0.000000
vt 0.000000 1.000000
vt 0.000000 0.000000
vt 0.000000 0.000000
vt 1.000000 1.000000
vt 0.000000 1.000000
vt 1.000000 0.000000
vt 0.000000 1.000000
vt 0.000000 0.000000
vt 1.000000 0.000000
vt 0.000000 1.000000
vt 0.000000 0.000000
vt 0.000000 0.000000
vt 1.000000 1.000000
vt 1.000000 0.000000
vt 1.000000 1.000000
vt 0.000000 0.000000
vt 1.000000 1.000000
vt 0.000000 1.000000
vt 0.000000 0.000000
vt 1.000000 1.000000
vt 0.000000 1.000000
vt 1.000000 0.000000
vt 0.000000 1.000000
vt 0.000000 0.000000
vt 0.000000 0.000000
vt 1.000000 1.000000
vt 0.000000 1.000000
vt 1.000000 0.000000
vt 0.000000 1.000000
vt 0.000000 0.000000
vt 1.000000 0.000000
vt 1.000000 1.000000
vt 1.000000 0.000000
vt 0.000000 1.000000
vt 0.000000 0.000000
vt 1.000000 0.000000
vt 0.000000 1.000000
vt 0.000000 0.000000
vt 1.000000 0.000000
vt 0.000000 1.000000
vt 0.000000 0.000000
vt 1.000000 0.000000
vt 0.000000 1.000000
vt 0.000000 0.000000
vt 1.000000 0.000000
vt 0.000000 1.000000
vt 0.000000 0.000000
vt 1.000000 0.000000
vt 0.000000 1.000000
vt 0.000000 0.000000
vt 0.000000 0.000000
vt 1.000000 1.000000
vt 1.000000 1.000000
vt 1.000000 1.000000
vt 1.000000 0.000000
vt 1.000000 1.000000
vt 1.000000 1.000000
vt 1.000000 0.000000
vt 1.000000 0.000000
vt 1.000000 1.000000
vt 1.000000 1.000000
vt 1.000000 1.000000
vt 1.000000 1.000000
vt 1.000000 1.000000
vt 1.000000 1.000000
vt 1.000000 1.000000
vt 1.000000 1.000000
vt 1.000000 1.000000
vt 1.000000 0.000000
vt 1.000000 1.000000
vt 1.000000 1.000000
vt 1.000000 1.000000
vt 1.000000 1.000000
vt 1.000000 0.000000
vt 1.000000 0.000000
vt 1.000000 1.000000
vt 1.000000 1.000000
vt 1.000000 1.000000
vt 1.000000 0.000000
vt 1.000000 1.000000
vt 1.000000 1.000000
vt 1.000000 1.000000
vt 1.000000 1.000000
vt 1.000000 0.000000
vt 1.000000 1.000000
vt 1.000000 0.000000
vt 1.000000 0.000000
vt 1.000000 0.000000
vt 1.000000 1.000000
vt 1.000000 1.000000
vt 1.000000 1.000000
vt 1.000000 1.000000
vt 1.000000 1.000000
vt 1.000000 1.000000
vn 0.0805 -0.9776 -0.1945
vn 0.3256 -0.5253 -0.7862
vn 0.3764 0.1807 -0.9087
vn 0.2243 0.8103 -0.5414
vn 0.2243 -0.8103 -0.5414
vn 0.3764 -0.1807 -0.9087
vn 0.3256 0.5253 -0.7862
vn 0.0805 0.9776 -0.1945
vn 0.5414 -0.8103 -0.2243
vn 0.9087 -0.1807 -0.3764
vn 0.7862 0.5253 -0.3256
vn 0.1945 0.9776 -0.0805
vn 0.1945 -0.9776 -0.0805
vn 0.7862 -0.5253 -0.3256
vn 0.9087 0.1807 -0.3764
vn 0.5414 0.8103 -0.2243
vn 0.9087 -0.1807 0.3764
vn 0.7862 0.5253 0.3256
vn 0.1945 0.9776 0.0805
vn 0.1945 -0.9776 0.0805
vn 0.7862 -0.5253 0.3256
vn 0.9087 0.1807 0.3764
vn 0.5414 0.8103 0.2243
vn 0.5414 -0.8103 0.2243
vn 0.0805 -0.9776 0.1945
vn 0.3256 -0.5253 0.7862
vn 0.3764 0.1807 0.9087
vn 0.2243 0.8103 0.5414
vn 0.2243 -0.8103 0.5414
vn 0.3764 -0.1807 0.9087
vn 0.3256 0.5253 0.7862
vn 0.0805 0.9776 0.1945
vn -0.3764 0.1807 0.9087
vn -0.2243 0.8103 0.5414
vn -0.2243 -0.8103 0.5414
vn -0.3764 -0.1807 0.9087
vn -0.3256 0.5253 0.7862
vn -0.0805 0.9776 0.1945
vn -0.0805 -0.9776 0.1945
vn -0.3256 -0.5253 0.7862
vn -0.5414 -0.8103 0.2243
vn -0.9087 -0.1807 0.3764
vn -0.7862 0.5253 0.3256
vn -0.1945 0.9776 0.0805
vn -0.1945 -0.9776 0.0805
vn -0.7862 -0.5253 0.3256
vn -0.9087 0.1807 0.3764
vn -0.5414 0.8103 0.2243
vn -0.7862 0.5253 -0.3256
vn -0.1945 0.9776 -0.0805
vn -0.1945 -0.9776 -0.0805
vn -0.7862 -0.5253 -0.3256
vn -0.9087 0.1807 -0.3764
vn -0.5414 0.8103 -0.2243
vn -0.5414 -0.8103 -0.2243
vn -0.9087 -0.1807 -0.3764
vn -0.0805 -0.9776 -0.1945
vn -0.3256 -0.5253 -0.7862
vn -0.3764 0.1807 -0.9087
vn -0.2243 0.8103 -0.5414
vn -0.2243 -0.8103 -0.5414
vn -0.3764 -0.1807 -0.9087
vn -0.3256 0.5253 -0.7862
vn -0.0805 0.9776 -0.1945
usemtl Material.002
s 1
f 1/1/1 2/2/1 3/3/1
f 4/4/2 5/5/2 6/6/2
f 7/7/3 8/8/3 9/9/3
f 10/10/4 11/11/4 12/12/4
f 6/13/5 3/14/5 2/15/5
f 9/16/6 13/17/6 4/18/6
f 7/19/7 12/20/7 14/21/7
f 15/22/8 16/23/8 11/11/8
f 3/24/9 17/25/9 18/26/9
f 8/27/10 19/28/10 13/29/10
f 12/30/11 20/31/11 14/32/11
f 11/33/12 16/23/12 21/34/12
f 1/1/13 3/35/13 18/36/13
f 13/37/14 17/38/14 5/39/14
f 14/40/15 22/41/15 8/42/15
f 11/43/16 23/44/16 12/45/16
f 22/46/17 24/47/17 19/48/17
f 23/49/18 25/50/18 20/51/18
f 21/52/19 16/23/19 26/53/19
f 1/1/20 18/54/20 27/55/20
f 19/56/21 28/57/21 17/58/21
f 20/59/22 29/60/22 22/61/22
f 21/62/23 30/63/23 23/64/23
f 17/65/24 27/66/24 18/67/24
f 1/1/25 27/68/25 31/69/25
f 28/70/26 32/71/26 33/72/26
f 25/73/27 34/74/27 29/75/27
f 26/76/28 35/77/28 30/78/28
f 28/79/29 31/80/29 27/81/29
f 29/82/30 32/83/30 24/84/30
f 30/85/31 36/86/31 25/87/31
f 26/88/32 16/23/32 37/89/32
f 34/90/33 38/91/33 39/92/33
f 35/93/34 40/94/34 41/95/34
f 33/96/35 42/97/35 31/98/35
f 34/99/36 43/100/36 32/101/36
f 35/102/37 38/103/37 36/104/37
f 37/105/38 16/23/38 40/94/38
f 1/1/39 31/106/39 42/107/39
f 33/108/40 43/109/40 44/110/40
f 44/111/41 45/112/41 42/113/41
f 39/114/42 46/115/42 43/116/42
f 41/117/43 47/118/43 38/119/43
f 40/120/44 16/23/44 48/121/44
f 1/1/45 42/122/45 45/123/45
f 43/124/46 49/125/46 44/126/46
f 39/127/47 47/128/47 50/129/47
f 40/130/48 51/131/48 41/132/48
f 51/133/49 52/134/49 47/135/49
f 48/136/50 16/23/50 53/137/50
f 1/1/51 45/138/51 54/139/51
f 49/140/52 55/141/52 56/142/52
f 50/143/53 52/144/53 57/145/53
f 48/146/54 58/147/54 51/148/54
f 45/149/55 56/150/55 54/151/55
f 50/152/56 55/153/56 46/154/56
f 1/1/57 54/155/57 2/156/57
f 55/157/58 6/158/58 56/159/58
f 52/160/59 9/161/59 57/162/59
f 53/163/60 10/164/60 58/165/60
f 56/166/61 2/167/61 54/168/61
f 57/169/62 4/170/62 55/171/62
f 58/172/63 7/173/63 52/174/63
f 53/175/64 16/23/64 15/176/64
f 4/4/2 13/177/2 5/5/2
f 7/7/3 14/178/3 8/8/3
f 10/10/4 15/179/4 11/11/4
f 6/13/5 5/180/5 3/14/5
f 9/16/6 8/181/6 13/17/6
f 7/19/7 10/182/7 12/20/7
f 3/24/9 5/183/9 17/25/9
f 8/27/10 22/184/10 19/28/10
f 12/30/11 23/185/11 20/31/11
f 13/37/14 19/186/14 17/38/14
f 14/40/15 20/187/15 22/41/15
f 11/43/16 21/34/16 23/44/16
f 22/46/17 29/188/17 24/47/17
f 23/49/18 30/189/18 25/50/18
f 19/56/21 24/190/21 28/57/21
f 20/59/22 25/191/22 29/60/22
f 21/62/23 26/53/23 30/63/23
f 17/65/24 28/192/24 27/66/24
f 28/70/26 24/193/26 32/71/26
f 25/73/27 36/194/27 34/74/27
f 26/76/28 37/89/28 35/77/28
f 28/79/29 33/195/29 31/80/29
f 29/82/30 34/196/30 32/83/30
f 30/85/31 35/197/31 36/86/31
f 34/90/33 36/198/33 38/91/33
f 35/93/34 37/199/34 40/94/34
f 33/96/35 44/200/35 42/97/35
f 34/99/36 39/201/36 43/100/36
f 35/102/37 41/202/37 38/103/37
f 33/108/40 32/203/40 43/109/40
f 44/111/41 49/204/41 45/112/41
f 39/114/42 50/205/42 46/115/42
f 41/117/43 51/206/43 47/118/43
f 43/124/46 46/207/46 49/125/46
f 39/127/47 38/208/47 47/128/47
f 40/130/48 48/121/48 51/131/48
f 51/133/49 58/209/49 52/134/49
f 49/140/52 46/210/52 55/141/52
f 50/143/53 47/211/53 52/144/53
f 48/146/54 53/137/54 58/147/54
f 45/149/55 49/212/55 56/150/55
f 50/152/56 57/213/56 55/153/56
f 55/157/58 4/214/58 6/158/58
f 52/160/59 7/215/59 9/161/59
f 53/163/60 15/176/60 10/164/60
f 56/166/61 6/216/61 2/167/61
f 57/169/62 9/217/62 4/170/62
f 58/172/63 10/218/63 7/173/63
